# xmcd
#
# Track frame offsets: 
#        150
#        15866
#        37605
#        58851
#        69953
#        93901
#        124784
#        150765
#        171102
#        184419
#        205431
#        232574
#        246701
#        270957
#
# Disc length: 4395 seconds
#
# Revision: 0
# Processed by: cddbd v1.5.1PL2 Copyright (c) Steve Scherf et al.
# Submitted via: ExactAudioCopy v0.95b3
#
DISCID=a511290e
DTITLE=Van Morrison - Fife Aid
DYEAR=1988
DGENRE=Celtic
TTITLE0=Celtic Excavation
TTITLE1=Queen Of the Slipstream
TTITLE2=Someone Like You
TTITLE3=I Forgot That Love Existed
TTITLE4=In The Garden
TTITLE5=A Sense Of Wonder
TTITLE6=Help Me
TTITLE7=Irish Heartbeat
TTITLE8=Star Of the County Down
TTITLE9=Raglan Road
TTITLE10=Cleaning Windows
TTITLE11=Bright Side Of The Road
TTITLE12=Dead Girls Of London
TTITLE13=Gloria > Shakin' All Over
EXTD=
EXTT0=
EXTT1=
EXTT2=
EXTT3=
EXTT4=
EXTT5=
EXTT6=
EXTT7=
EXTT8=
EXTT9=
EXTT10=
EXTT11=
EXTT12=
EXTT13=
PLAYORDER=
